<svg width="26" height="24" viewBox="0 0 26 24" fill="none" xmlns="http://www.w3.org/2000/svg">
<path fill-rule="evenodd" clip-rule="evenodd" d="M6.68926 4.21934C6.83732 4.35997 6.92048 4.55059 6.92048 4.74934C6.92048 4.94809 6.83732 5.13871 6.68926 5.27934C5.80809 6.11509 5.1091 7.10731 4.6322 8.19934C4.15531 9.29137 3.90985 10.4618 3.90985 11.6438C3.90985 12.8259 4.15531 13.9963 4.6322 15.0883C5.1091 16.1804 5.80809 17.1726 6.68926 18.0083C6.82892 18.1505 6.90495 18.3386 6.90134 18.5329C6.89772 18.7272 6.81475 18.9125 6.66989 19.05C6.52503 19.1874 6.3296 19.2661 6.12478 19.2695C5.91995 19.2729 5.72172 19.2008 5.57184 19.0683C1.24868 14.9683 1.24868 8.32034 5.57184 4.21934C5.72008 4.07889 5.92103 4 6.13055 4C6.34007 4 6.54102 4.07889 6.68926 4.21934ZM20.1068 4.21934C20.255 4.07889 20.456 4 20.6655 4C20.875 4 21.076 4.07889 21.2242 4.21934C25.5474 8.31934 25.5474 14.9683 21.2242 19.0693C21.1512 19.1409 21.064 19.198 20.9675 19.2373C20.871 19.2766 20.7672 19.2972 20.6623 19.298C20.5573 19.2988 20.4532 19.2798 20.356 19.2421C20.2589 19.2043 20.1706 19.1486 20.0964 19.0781C20.0222 19.0077 19.9636 18.9239 19.9239 18.8317C19.8842 18.7395 19.8642 18.6408 19.8652 18.5412C19.8661 18.4416 19.888 18.3432 19.9295 18.2517C19.971 18.1602 20.0312 18.0775 20.1068 18.0083C20.9878 17.1726 21.6866 16.1805 22.1634 15.0885C22.6402 13.9966 22.8857 12.8262 22.8857 11.6443C22.8857 10.4624 22.6402 9.2921 22.1634 8.20016C21.6866 7.10823 20.9878 6.11607 20.1068 5.28034C19.9587 5.13971 19.8755 4.94909 19.8755 4.75034C19.8755 4.55159 19.9587 4.35997 20.1068 4.21934ZM8.92516 6.34034C8.99863 6.40999 9.05691 6.49269 9.09668 6.58372C9.13644 6.67474 9.15691 6.77231 9.15691 6.87084C9.15691 6.96937 9.13644 7.06694 9.09668 7.15796C9.05691 7.24899 8.99863 7.33169 8.92516 7.40134C7.73908 8.52655 7.07275 10.0526 7.07275 11.6438C7.07275 13.2351 7.73908 14.7611 8.92516 15.8863C9.06925 16.0277 9.14904 16.2171 9.14734 16.4138C9.14563 16.6104 9.06258 16.7986 8.91606 16.9377C8.76954 17.0768 8.57128 17.1558 8.36397 17.1576C8.15667 17.1594 7.95692 17.0839 7.80774 16.9473C7.07351 16.2509 6.49108 15.4241 6.09372 14.5141C5.69635 13.6041 5.49183 12.6288 5.49183 11.6438C5.49183 10.6589 5.69635 9.68356 6.09372 8.77358C6.49108 7.86361 7.07351 7.03679 7.80774 6.34034C7.95598 6.19989 8.15693 6.121 8.36645 6.121C8.57597 6.121 8.77692 6.19989 8.92516 6.34034ZM17.8709 6.34034C18.0191 6.19989 18.2201 6.121 18.4296 6.121C18.6391 6.121 18.8401 6.19989 18.9883 6.34034C19.7225 7.03679 20.305 7.86361 20.7023 8.77358C21.0997 9.68356 21.3042 10.6589 21.3042 11.6438C21.3042 12.6288 21.0997 13.6041 20.7023 14.5141C20.305 15.4241 19.7225 16.2509 18.9883 16.9473C18.8384 17.0798 18.6402 17.1519 18.4354 17.1485C18.2305 17.1451 18.0351 17.0664 17.8902 16.929C17.7454 16.7915 17.6624 16.6062 17.6588 16.4119C17.6552 16.2176 17.7312 16.0295 17.8709 15.8873C18.4583 15.3302 18.9243 14.6687 19.2422 13.9407C19.5602 13.2127 19.7238 12.4324 19.7238 11.6443C19.7238 10.8563 19.5602 10.076 19.2422 9.34801C18.9243 8.61999 18.4583 7.9585 17.8709 7.40134C17.7228 7.26071 17.6397 7.07009 17.6397 6.87134C17.6397 6.67259 17.7228 6.48097 17.8709 6.34034ZM11.1621 8.46234C11.3102 8.60297 11.3933 8.79359 11.3933 8.99234C11.3933 9.19109 11.3102 9.38171 11.1621 9.52234C10.8684 9.80092 10.6354 10.1317 10.4764 10.4957C10.3175 10.8597 10.2356 11.2498 10.2356 11.6438C10.2356 12.0378 10.3175 12.428 10.4764 12.792C10.6354 13.156 10.8684 13.4868 11.1621 13.7653C11.2376 13.8346 11.2978 13.9173 11.3392 14.0089C11.3806 14.1004 11.4023 14.1988 11.4032 14.2984C11.4041 14.398 11.384 14.4967 11.3442 14.5889C11.3044 14.681 11.2457 14.7648 11.1714 14.8351C11.0971 14.9055 11.0088 14.9612 10.9116 14.9988C10.8144 15.0365 10.7103 15.0554 10.6053 15.0545C10.5004 15.0536 10.3966 15.0329 10.3002 14.9935C10.2038 14.9542 10.1165 14.897 10.0436 14.8253C9.15432 13.9815 8.65473 12.8371 8.65473 11.6438C8.65473 10.4506 9.15432 9.30621 10.0436 8.46234C10.1919 8.32189 10.3928 8.243 10.6024 8.243C10.8119 8.243 11.0139 8.32189 11.1621 8.46234ZM15.6339 8.46234C15.7073 8.39264 15.7945 8.33736 15.8905 8.29964C15.9864 8.26192 16.0893 8.2425 16.1932 8.2425C16.297 8.2425 16.3999 8.26192 16.4958 8.29964C16.5918 8.33736 16.679 8.39264 16.7524 8.46234C17.1929 8.8802 17.5423 9.37628 17.7807 9.92225C18.0191 10.4682 18.1418 11.0534 18.1418 11.6443C18.1418 12.2353 18.0191 12.8205 17.7807 13.3664C17.5423 13.9124 17.1929 14.4085 16.7524 14.8263C16.6025 14.9588 16.4043 15.0309 16.1995 15.0275C15.9946 15.0241 15.7992 14.9454 15.6543 14.808C15.5095 14.6705 15.4265 14.4852 15.4229 14.2909C15.4193 14.0966 15.4953 13.9085 15.635 13.7663C15.9289 13.4877 16.162 13.1569 16.321 12.7928C16.4801 12.4287 16.562 12.0385 16.562 11.6443C16.562 11.2502 16.4801 10.8599 16.321 10.4958C16.162 10.1317 15.9289 9.80094 15.635 9.52234C15.4869 9.38171 15.4037 9.19109 15.4037 8.99234C15.4037 8.79359 15.4859 8.60297 15.6339 8.46234ZM12.2121 11.6443C12.2121 11.346 12.337 11.0598 12.5594 10.8488C12.7818 10.6379 13.0835 10.5193 13.398 10.5193C13.7125 10.5193 14.0142 10.6379 14.2366 10.8488C14.459 11.0598 14.584 11.346 14.584 11.6443C14.584 11.9427 14.459 12.2289 14.2366 12.4398C14.0142 12.6508 13.7125 12.7693 13.398 12.7693C13.0835 12.7693 12.7818 12.6508 12.5594 12.4398C12.337 12.2289 12.2121 11.9427 12.2121 11.6443Z" fill="#4E5A66"/>
</svg>
