<svg width="22" height="24" viewBox="0 0 22 24" fill="none" xmlns="http://www.w3.org/2000/svg">
<path d="M8.19245 2.59673C8.29793 1.96385 8.84549 1.5 9.48709 1.5H12.5134C13.155 1.5 13.7025 1.96385 13.808 2.59673L14.0571 4.09128C14.1298 4.52767 14.4215 4.89116 14.8085 5.10542C14.8951 5.15332 14.9806 5.20281 15.0651 5.25383C15.4443 5.48281 15.9056 5.55401 16.3204 5.3986L17.7401 4.86674C18.3409 4.64165 19.0164 4.88393 19.3372 5.43957L20.8503 8.06041C21.1711 8.61606 21.0432 9.32219 20.5478 9.72997L19.3761 10.6946C19.0348 10.9755 18.8657 11.4093 18.8739 11.8513C18.8748 11.9007 18.8752 11.9503 18.8752 12C18.8752 12.0497 18.8748 12.0992 18.8739 12.1487C18.8657 12.5906 19.0348 13.0245 19.3761 13.3054L20.5478 14.27C21.0432 14.6778 21.1711 15.3839 20.8503 15.9396L19.3372 18.5604C19.0164 19.1161 18.3409 19.3583 17.7401 19.1332L16.3204 18.6014C15.9056 18.446 15.4443 18.5172 15.0651 18.7462C14.9806 18.7972 14.8951 18.8467 14.8085 18.8946C14.4215 19.1088 14.1298 19.4723 14.0571 19.9087L13.808 21.4033C13.7025 22.0361 13.155 22.5 12.5134 22.5H9.48709C8.84549 22.5 8.29793 22.0361 8.19245 21.4033L7.94336 19.9087C7.87062 19.4723 7.57899 19.1088 7.19193 18.8946C7.10539 18.8467 7.01985 18.7972 6.93535 18.7462C6.55614 18.5172 6.09492 18.446 5.6801 18.6014L4.26042 19.1333C3.6596 19.3583 2.9841 19.1161 2.6633 18.5604L1.15016 15.9396C0.829357 15.3839 0.957286 14.6778 1.45263 14.27L2.62437 13.3054C2.96563 13.0245 3.1348 12.5907 3.12661 12.1487C3.1257 12.0993 3.12524 12.0497 3.12524 12C3.12524 11.9503 3.1257 11.9008 3.12661 11.8513C3.1348 11.4094 2.96563 10.9755 2.62437 10.6946L1.45263 9.72999C0.957286 9.3222 0.829357 8.61607 1.15016 8.06043L2.6633 5.43959C2.9841 4.88394 3.65959 4.64167 4.26042 4.86676L5.68008 5.39861C6.0949 5.55402 6.55612 5.48282 6.93533 5.25384C7.01984 5.20281 7.10539 5.15332 7.19193 5.10542C7.57899 4.89116 7.87062 4.52767 7.94335 4.09128L8.19245 2.59673Z" stroke="#4E5A66" stroke-width="1.5" stroke-linecap="round" stroke-linejoin="round"/>
<path d="M14.5 11.9999C14.5 13.9329 12.933 15.4999 11 15.4999C9.06697 15.4999 7.49997 13.9329 7.49997 11.9999C7.49997 10.0669 9.06697 8.49991 11 8.49991C12.933 8.49991 14.5 10.0669 14.5 11.9999Z" stroke="#4E5A66" stroke-width="1.5" stroke-linecap="round" stroke-linejoin="round"/>
</svg>
