<svg width="24" height="23" viewBox="0 0 24 23" fill="none" xmlns="http://www.w3.org/2000/svg">
<path d="M15.75 5.6466C15.75 6.58266 15.3549 7.48038 14.6516 8.14227C13.9484 8.80416 12.9945 9.17601 12 9.17601C11.0054 9.17601 10.0516 8.80416 9.34833 8.14227C8.64507 7.48038 8.24998 6.58266 8.24998 5.6466C8.24998 4.71054 8.64507 3.81282 9.34833 3.15093C10.0516 2.48904 11.0054 2.11719 12 2.11719C12.9945 2.11719 13.9484 2.48904 14.6516 3.15093C15.3549 3.81282 15.75 4.71054 15.75 5.6466ZM4.50098 18.9341C4.53311 17.0822 5.33731 15.3164 6.74015 14.0175C8.14299 12.7185 10.0321 11.9906 12 11.9906C13.9679 11.9906 15.857 12.7185 17.2598 14.0175C18.6626 15.3164 19.4668 17.0822 19.499 18.9341C17.1464 19.9494 14.5881 20.4734 12 20.4701C9.32398 20.4701 6.78398 19.9205 4.50098 18.9341Z" stroke="#4E5A66" stroke-width="1.5" stroke-linecap="round" stroke-linejoin="round"/>
</svg>
