<svg width="142" height="139" viewBox="0 0 142 139" fill="none" xmlns="http://www.w3.org/2000/svg">
<path d="M100.12 23.6569C100.12 23.6569 90.531 48.1256 127.777 70.6661C160.855 90.6842 127.085 124.221 107.949 129.801C83.1597 137.03 55.5296 115.254 42.9716 133.167C30.4136 151.079 -7.75481 119.035 9.52039 91.0601C31.0098 56.2601 5.40007 55.7225 1.11242 40.5641C-1.96486 29.685 18.7496 -0.297728 43.1275 9.0975C63.6411 17.0032 67.2997 8.49222 72.2186 3.48006C79.3126 -3.74883 105.528 1.23856 100.12 23.6569Z" fill="#F3F4F6"/>
<path d="M58.2671 104.471C52.0735 104.19 45.0353 96.776 48.1321 94.8053C51.229 92.8346 50.8535 88.7056 49.7275 88.1429C42.7831 85.4215 41.0939 79.3218 39.5924 71.5328C38.091 63.7439 38.9355 38.9696 38.9355 38.9696L47.6629 34.559L71.7805 33.1514L78.631 44.5063C78.631 44.5063 76.1198 51.2856 75.9096 58.0684C77.5537 56.7547 80.4253 54.9454 82.572 56.2367C83.9609 57.0699 84.7979 58.3725 85.1544 59.829C85.616 61.717 85.267 63.8716 84.261 65.6209C83.5628 66.8371 82.7442 68.0497 81.6109 68.9809C80.0077 70.2984 77.7709 71.0455 74.3212 70.4374C74.4601 72.288 78.0674 72.367 78.0674 74.2549C78.0674 76.0379 78.0002 78.7594 78.0674 79.7916C78.6304 88.2375 83.2287 91.1466 85.5746 93.9619C87.9204 96.7771 64.4608 104.753 58.2671 104.471Z" fill="#AEB3C1"/>
<path d="M40.3445 69.5613C44.1273 69.5613 47.194 66.2267 47.194 62.1134C47.194 58.0001 44.1273 54.6655 40.3445 54.6655C36.5616 54.6655 33.495 58.0001 33.495 62.1134C33.495 66.2267 36.5616 69.5613 40.3445 69.5613Z" fill="#808898"/>
<path d="M40.3442 68.085C43.4014 68.085 45.8798 65.4114 45.8798 62.1133C45.8798 58.8152 43.4014 56.1416 40.3442 56.1416C37.2869 56.1416 34.8085 58.8152 34.8085 62.1133C34.8085 65.4114 37.2869 68.085 40.3442 68.085Z" fill="#D4E5FF"/>
<path d="M58.4083 70.1245C62.0622 70.1245 65.0242 67.0154 65.0242 63.1802C65.0242 59.3449 62.0622 56.2358 58.4083 56.2358C54.7544 56.2358 51.7924 59.3449 51.7924 63.1802C51.7924 67.0154 54.7544 70.1245 58.4083 70.1245Z" fill="#808898"/>
<path d="M58.4079 69.0454C61.3166 69.0454 63.6745 66.4194 63.6745 63.1802C63.6745 59.9409 61.3166 57.3149 58.4079 57.3149C55.4992 57.3149 53.1412 59.9409 53.1412 63.1802C53.1412 66.4194 55.4992 69.0454 58.4079 69.0454Z" fill="#D4E5FF"/>
<path d="M46.8642 59.8278C46.8642 59.8278 50.2665 58.5346 52.5074 60.9745C52.5074 61.3969 52.1675 62.1132 52.1675 62.1132C52.1675 62.1132 49.1622 59.7545 46.8642 61.5372C46.49 60.7993 46.2645 59.9991 46.8642 59.8278Z" fill="#808898"/>
<path d="M64.4675 61.3681L75.8054 57.3149L75.6974 58.3183L64.8299 62.8591L64.4675 61.3681Z" fill="#808898"/>
<path d="M18.4104 111.331C18.1602 110.651 18.0619 109.925 18.1225 109.203C18.1831 108.482 18.4011 107.782 18.7611 107.154L21.6687 102.031C21.6687 102.031 22.044 100.029 30.5524 98.8404C39.0608 97.6517 47.2461 95.5136 48.1323 94.8051C48.1323 94.8051 63.1669 107.72 85.3035 93.6455C85.3035 93.6455 103.374 103.845 107.503 104.221C109.929 104.441 111.814 109.217 112.958 113.12C113.147 113.768 113.202 114.448 113.118 115.117C113.034 115.787 112.814 116.433 112.47 117.014C112.126 117.595 111.667 118.099 111.121 118.496C110.574 118.892 109.952 119.172 109.293 119.318C91.0241 123.382 27.4958 135.602 18.4104 111.331Z" fill="#808898"/>
<path d="M81.6117 68.9795C79.4683 74.0808 78.0043 76.2275 76.2852 76.0365C74.4909 75.8376 73.9241 72.9357 74.0442 70.3834C77.6515 71.0854 79.9675 70.3309 81.6117 68.9795Z" fill="#263446"/>
<path d="M85.2004 59.7079C85.1854 59.7492 85.1703 59.7905 85.1554 59.8281C84.7987 58.3716 83.9617 57.069 82.573 56.2358C80.3696 54.911 77.4004 56.8513 75.7788 58.1764C76.0866 52.2681 75.5686 45.5827 72.3442 44.1301C66.7136 41.5962 66.4846 42.1594 62.9862 42.3471C59.7016 42.5234 51.6499 43.0302 50.2836 42.2382C51.1845 43.083 55.4375 46.7088 62.2204 47.0392C62.9862 47.6022 62.4906 48.0714 61.7404 47.9776C60.9901 47.8837 50.7608 47.6961 43.0657 38.0302C43.0657 38.0302 38.6026 46.3785 38.7001 53.8894C38.7001 53.8894 35.8393 48.2588 37.6228 40.1883C38.7001 34.1824 41.4704 34.7451 41.4704 34.7451C41.4704 34.7451 39.5927 21.3262 52.4491 22.5462C56.2027 23.0154 62.5841 28.5521 66.9009 28.4583C71.2176 28.3644 75.1591 28.646 75.1591 28.646C75.1591 28.646 81.2588 27.7075 82.2911 35.9657C82.3358 37.6282 83.5359 38.3774 86.7955 38.781C90.1557 39.197 89.6108 47.8838 85.2004 59.7079Z" fill="#263446"/>
<path d="M115.893 131.071C124.523 131.071 131.518 124.075 131.518 115.446C131.518 106.816 124.523 99.8208 115.893 99.8208C107.264 99.8208 100.268 106.816 100.268 115.446C100.268 124.075 107.264 131.071 115.893 131.071Z" fill="#263446" stroke="white" stroke-width="15" stroke-miterlimit="10"/>
<path d="M121.913 114.137H117.464C117.429 114.137 117.395 114.13 117.364 114.117C117.332 114.104 117.303 114.084 117.279 114.06C117.254 114.036 117.235 114.007 117.222 113.975C117.209 113.944 117.202 113.909 117.202 113.875V109.426C117.199 109.081 117.06 108.751 116.815 108.508C116.57 108.265 116.239 108.128 115.893 108.128C115.548 108.128 115.217 108.265 114.972 108.508C114.727 108.751 114.588 109.081 114.585 109.426V113.875C114.585 113.945 114.557 114.011 114.508 114.06C114.459 114.109 114.393 114.137 114.323 114.137H109.874C109.527 114.137 109.194 114.275 108.949 114.52C108.703 114.765 108.565 115.098 108.565 115.445C108.565 115.792 108.703 116.125 108.949 116.371C109.194 116.616 109.527 116.754 109.874 116.754H114.323C114.357 116.754 114.392 116.761 114.423 116.774C114.455 116.787 114.484 116.806 114.508 116.831C114.532 116.855 114.552 116.884 114.565 116.916C114.578 116.947 114.585 116.981 114.585 117.016V121.465C114.588 121.81 114.727 122.14 114.972 122.383C115.217 122.626 115.548 122.763 115.893 122.763C116.239 122.763 116.57 122.626 116.815 122.383C117.06 122.14 117.199 121.81 117.202 121.465V117.016C117.202 116.981 117.209 116.947 117.222 116.916C117.235 116.884 117.254 116.855 117.279 116.831C117.303 116.806 117.332 116.787 117.364 116.774C117.395 116.761 117.429 116.754 117.464 116.754H121.913C122.26 116.754 122.593 116.616 122.838 116.371C123.084 116.125 123.222 115.792 123.222 115.445C123.222 115.098 123.084 114.765 122.838 114.52C122.593 114.275 122.26 114.137 121.913 114.137Z" fill="white"/>
</svg>
