<svg width="64" height="64" viewBox="0 0 64 64" fill="none" xmlns="http://www.w3.org/2000/svg">
<g clip-path="url(#clip0_678_3651)">
<path d="M40.6299 14.3929H23.3847C22.9917 14.3934 22.615 14.5536 22.3371 14.8383C22.0592 15.1229 21.9029 15.5089 21.9024 15.9115V55.1767L21.7048 55.2384L17.4742 56.5656C17.2737 56.6283 17.0572 56.6068 16.8721 56.5061C16.687 56.4053 16.5485 56.2334 16.487 56.0281L3.90315 13.9181C3.84191 13.7127 3.86278 13.4908 3.96118 13.3012C4.05957 13.1115 4.22744 12.9697 4.42789 12.9068L10.9471 10.8618L29.8466 4.93528L36.3658 2.89028C36.465 2.85899 36.5693 2.84806 36.6726 2.85811C36.776 2.86815 36.8764 2.89898 36.9681 2.94881C37.0598 2.99865 37.141 3.06652 37.207 3.14855C37.2731 3.23057 37.3227 3.32514 37.3531 3.42684L40.5697 14.1905L40.6299 14.3929Z" fill="#F2F2F2"/>
<path d="M44.3929 14.1911L40.5161 1.21843C40.4516 1.00229 40.3462 0.801275 40.2058 0.62689C40.0654 0.452505 39.8929 0.308164 39.6981 0.202113C39.5033 0.0960616 39.2899 0.0303788 39.0703 0.00882029C38.8507 -0.0127382 38.6291 0.0102499 38.4181 0.0764688L29.2525 2.95062L10.354 8.8781L1.18838 11.7533C0.762591 11.8872 0.406073 12.1887 0.197081 12.5917C-0.0119114 12.9947 -0.0563043 13.4661 0.0736484 13.9025L13.3236 58.2377C13.4291 58.59 13.6421 58.8984 13.9313 59.1176C14.2205 59.3368 14.5707 59.4552 14.9304 59.4556C15.0969 59.4557 15.2625 59.4301 15.4215 59.3797L21.7046 57.4096L21.9022 57.3468V57.1352L21.7046 57.197L15.3632 59.1863C14.9874 59.3037 14.5815 59.2635 14.2345 59.0747C13.8875 58.8858 13.6278 58.5637 13.5123 58.179L0.263425 13.8428C0.206217 13.6522 0.186278 13.4518 0.20475 13.2533C0.223222 13.0548 0.279741 12.8619 0.371073 12.6858C0.462405 12.5096 0.586757 12.3537 0.737004 12.2268C0.887251 12.1 1.06044 12.0048 1.24666 11.9466L10.4123 9.07147L29.3108 3.14499L38.4765 0.269835C38.6177 0.225675 38.7646 0.203159 38.9122 0.203018C39.2292 0.203747 39.5376 0.308423 39.7922 0.501713C40.0469 0.695003 40.2344 0.966751 40.3274 1.27715L44.1863 14.1911L44.2476 14.3935H44.4532L44.3929 14.1911Z" fill="#3F3D56"/>
<path d="M12.1233 12.9408C11.9328 12.9406 11.7474 12.878 11.5942 12.762C11.4411 12.646 11.3282 12.4827 11.2723 12.2962L9.99944 8.03696C9.96523 7.92255 9.95336 7.80235 9.96451 7.68324C9.97565 7.56413 10.0096 7.44844 10.0644 7.34277C10.1192 7.2371 10.1938 7.14352 10.2839 7.06738C10.374 6.99124 10.4778 6.93403 10.5895 6.89902L27.976 1.44596C28.2015 1.37545 28.4452 1.3995 28.6534 1.51282C28.8617 1.62615 29.0175 1.81949 29.0868 2.05042L30.3596 6.30973C30.4284 6.5408 30.4049 6.79038 30.2943 7.00372C30.1837 7.21706 29.995 7.37673 29.7696 7.44772L12.3831 12.9008C12.2989 12.9273 12.2113 12.9407 12.1233 12.9408Z" fill="#808898"/>
<path d="M18.7914 4.55147C19.8829 4.55147 20.7678 3.64496 20.7678 2.52671C20.7678 1.40847 19.8829 0.501953 18.7914 0.501953C17.6998 0.501953 16.8149 1.40847 16.8149 2.52671C16.8149 3.64496 17.6998 4.55147 18.7914 4.55147Z" fill="#808898"/>
<path d="M18.7911 3.80842C19.4823 3.80842 20.0426 3.23439 20.0426 2.52628C20.0426 1.81817 19.4823 1.24414 18.7911 1.24414C18.0999 1.24414 17.5396 1.81817 17.5396 2.52628C17.5396 3.23439 18.0999 3.80842 18.7911 3.80842Z" fill="white"/>
<path d="M59.553 58.9382H26.1515C25.9288 58.938 25.7153 58.8472 25.5578 58.6859C25.4004 58.5246 25.3118 58.3059 25.3115 58.0777V17.0763C25.3118 16.8482 25.4003 16.6295 25.5578 16.4681C25.7153 16.3068 25.9288 16.2161 26.1515 16.2158H59.553C59.7757 16.2161 59.9892 16.3068 60.1466 16.4682C60.3041 16.6295 60.3927 16.8482 60.3929 17.0763V58.0777C60.3927 58.3059 60.3041 58.5246 60.1466 58.6859C59.9892 58.8472 59.7757 58.938 59.553 58.9382Z" fill="#E6E6E6"/>
<path d="M44.1863 14.1904H23.3845C22.9392 14.1911 22.5123 14.3726 22.1973 14.6952C21.8824 15.0178 21.7052 15.4552 21.7046 15.9115V57.1963L21.9022 57.1346V15.9115C21.9027 15.5089 22.059 15.1229 22.3369 14.8382C22.6148 14.5535 22.9916 14.3934 23.3845 14.3929H44.2476L44.1863 14.1904ZM62.32 14.1904H23.3845C22.9392 14.1911 22.5123 14.3726 22.1973 14.6952C21.8824 15.0178 21.7052 15.4552 21.7046 15.9115V62.2785C21.7052 62.7347 21.8824 63.1721 22.1973 63.4947C22.5123 63.8173 22.9392 63.9989 23.3845 63.9995H62.32C62.7653 63.9989 63.1923 63.8173 63.5072 63.4947C63.8221 63.1721 63.9993 62.7347 63.9999 62.2785V15.9115C63.9993 15.4552 63.8221 15.0178 63.5072 14.6952C63.1923 14.3726 62.7653 14.1911 62.32 14.1904ZM63.8023 62.2785C63.8018 62.6811 63.6455 63.067 63.3676 63.3517C63.0897 63.6364 62.713 63.7966 62.32 63.797H23.3845C22.9916 63.7966 22.6148 63.6364 22.3369 63.3517C22.059 63.067 21.9027 62.6811 21.9022 62.2785V15.9115C21.9027 15.5089 22.059 15.1229 22.3369 14.8382C22.6148 14.5535 22.9916 14.3934 23.3845 14.3929H62.32C62.713 14.3934 63.0897 14.5535 63.3676 14.8382C63.6455 15.1229 63.8018 15.5089 63.8023 15.9115V62.2785Z" fill="#3F3D56"/>
<path d="M51.944 18.6449H33.761C33.5252 18.6446 33.2991 18.5486 33.1324 18.3778C32.9656 18.2069 32.8718 17.9753 32.8716 17.7338V13.2793C32.8718 13.0377 32.9656 12.8061 33.1324 12.6353C33.2991 12.4645 33.5252 12.3684 33.761 12.3682H51.944C52.1798 12.3684 52.4059 12.4645 52.5726 12.6353C52.7393 12.8061 52.8331 13.0377 52.8334 13.2793V17.7338C52.8331 17.9753 52.7394 18.2069 52.5726 18.3778C52.4059 18.5486 52.1798 18.6446 51.944 18.6449Z" fill="#808898"/>
<path d="M42.8524 12.6726C43.9439 12.6726 44.8288 11.7661 44.8288 10.6478C44.8288 9.52956 43.9439 8.62305 42.8524 8.62305C41.7608 8.62305 40.876 9.52956 40.876 10.6478C40.876 11.7661 41.7608 12.6726 42.8524 12.6726Z" fill="#808898"/>
<path d="M42.8523 11.8806C43.5171 11.8806 44.0561 11.3284 44.0561 10.6473C44.0561 9.96622 43.5171 9.41406 42.8523 9.41406C42.1874 9.41406 41.6484 9.96622 41.6484 10.6473C41.6484 11.3284 42.1874 11.8806 42.8523 11.8806Z" fill="white"/>
</g>
<defs>
<clipPath id="clip0_678_3651">
<rect width="64" height="64" fill="white"/>
</clipPath>
</defs>
</svg>
