<svg width="20" height="20" viewBox="0 0 20 20" fill="none" xmlns="http://www.w3.org/2000/svg">
<path d="M15.2337 8.13286V10.7495C15.2337 10.9162 15.2253 11.0828 15.2087 11.2412C15.0587 13.0078 14.017 13.8912 12.1003 13.8912H11.842C11.6753 13.8912 11.517 13.9662 11.4253 14.0995L10.642 15.1495C10.292 15.6162 9.73367 15.6162 9.38367 15.1495L8.60033 14.0995C8.517 13.9912 8.32533 13.8912 8.18366 13.8912H7.92533C5.83367 13.8912 4.79199 13.3745 4.79199 10.7579V8.14118C4.79199 6.22451 5.67532 5.18286 7.44199 5.03286C7.60032 5.01619 7.76698 5.00786 7.93365 5.00786H12.1253C14.1836 4.99953 15.2337 6.04953 15.2337 8.13286Z" stroke="#808898" stroke-width="1.5" stroke-miterlimit="10" stroke-linecap="round" stroke-linejoin="round"/>
<path d="M7.50033 18.3337H12.5003C16.667 18.3337 18.3337 16.667 18.3337 12.5003V7.50033C18.3337 3.33366 16.667 1.66699 12.5003 1.66699H7.50033C3.33366 1.66699 1.66699 3.33366 1.66699 7.50033V12.5003C1.66699 16.667 3.33366 18.3337 7.50033 18.3337Z" stroke="#808898" stroke-width="1.5" stroke-linecap="round" stroke-linejoin="round"/>
</svg>
