<svg width="18" height="19" viewBox="0 0 18 19" fill="none" xmlns="http://www.w3.org/2000/svg">
<path d="M9 13.25V15.035C9 16.4375 8.4375 17 7.0275 17H3.465C2.0625 17 1.5 16.4375 1.5 15.035V11.4725C1.5 10.0625 2.0625 9.5 3.465 9.5H5.25V11.2775C5.25 12.6875 5.8125 13.25 7.215 13.25H9Z" stroke="#61B0FF" stroke-width="1.5" stroke-linecap="round" stroke-linejoin="round"/>
<path d="M12.75 9.5V11.2775C12.75 12.6875 12.1875 13.25 10.7775 13.25H7.215C5.8125 13.25 5.25 12.6875 5.25 11.2775V7.715C5.25 6.3125 5.8125 5.75 7.215 5.75H9V7.5275C9 8.9375 9.5625 9.5 10.965 9.5H12.75Z" stroke="#AEB3C1" stroke-width="1.5" stroke-linecap="round" stroke-linejoin="round"/>
<path d="M16.5 3.965V7.5275C16.5 8.9375 15.9375 9.5 14.5275 9.5H10.965C9.5625 9.5 9 8.9375 9 7.5275V3.965C9 2.5625 9.5625 2 10.965 2H14.5275C15.9375 2 16.5 2.5625 16.5 3.965Z" stroke="#61B0FF" stroke-width="1.5" stroke-linecap="round" stroke-linejoin="round"/>
</svg>
