<svg width="20" height="20" viewBox="0 0 20 20" fill="none" xmlns="http://www.w3.org/2000/svg">
<path d="M9.99967 10.0003C12.3009 10.0003 14.1663 8.13484 14.1663 5.83366C14.1663 3.53247 12.3009 1.66699 9.99967 1.66699C7.69849 1.66699 5.83301 3.53247 5.83301 5.83366C5.83301 8.13484 7.69849 10.0003 9.99967 10.0003Z" stroke="#808898" stroke-width="1.5" stroke-linecap="round" stroke-linejoin="round"/>
<path d="M2.8418 18.3333C2.8418 15.1083 6.05013 12.5 10.0001 12.5C10.8001 12.5 11.5751 12.6083 12.3001 12.8083" stroke="#808898" stroke-width="1.5" stroke-linecap="round" stroke-linejoin="round"/>
<path d="M18.3337 15.0003C18.3337 15.267 18.3003 15.5253 18.2337 15.7753C18.1587 16.1087 18.0253 16.4337 17.8503 16.717C17.2753 17.6837 16.217 18.3337 15.0003 18.3337C14.142 18.3337 13.367 18.0086 12.7837 17.4753C12.5337 17.2586 12.317 17.0003 12.1503 16.717C11.842 16.217 11.667 15.6253 11.667 15.0003C11.667 14.1003 12.0253 13.2753 12.6087 12.6753C13.217 12.0503 14.067 11.667 15.0003 11.667C15.9837 11.667 16.8753 12.092 17.4753 12.7753C18.0087 13.367 18.3337 14.1503 18.3337 15.0003Z" stroke="#808898" stroke-width="1.5" stroke-miterlimit="10" stroke-linecap="round" stroke-linejoin="round"/>
<path d="M16.2421 14.9834H13.7588" stroke="#808898" stroke-width="1.5" stroke-miterlimit="10" stroke-linecap="round" stroke-linejoin="round"/>
<path d="M15 13.7666V16.2583" stroke="#808898" stroke-width="1.5" stroke-miterlimit="10" stroke-linecap="round" stroke-linejoin="round"/>
</svg>
