<svg width="18" height="18" viewBox="0 0 18 18" fill="none" xmlns="http://www.w3.org/2000/svg">
<path d="M13.5 5.37C13.455 5.3625 13.4025 5.3625 13.3575 5.37C12.3225 5.3325 11.4975 4.485 11.4975 3.435C11.4975 2.3625 12.36 1.5 13.4325 1.5C14.505 1.5 15.3675 2.37 15.3675 3.435C15.36 4.485 14.535 5.3325 13.5 5.37Z" stroke="#AEB3C1" stroke-width="1.5" stroke-linecap="round" stroke-linejoin="round"/>
<path d="M12.7275 10.8301C13.755 11.0026 14.8875 10.8226 15.6825 10.2901C16.74 9.58512 16.74 8.43012 15.6825 7.72512C14.88 7.19262 13.7325 7.01262 12.705 7.19262" stroke="#AEB3C1" stroke-width="1.5" stroke-linecap="round" stroke-linejoin="round"/>
<path d="M4.47752 5.37C4.52252 5.3625 4.57502 5.3625 4.62002 5.37C5.65502 5.3325 6.48002 4.485 6.48002 3.435C6.48002 2.3625 5.61752 1.5 4.54502 1.5C3.47252 1.5 2.61002 2.37 2.61002 3.435C2.61752 4.485 3.44252 5.3325 4.47752 5.37Z" stroke="#AEB3C1" stroke-width="1.5" stroke-linecap="round" stroke-linejoin="round"/>
<path d="M5.25002 10.8301C4.22252 11.0026 3.09002 10.8226 2.29502 10.2901C1.23752 9.58512 1.23752 8.43012 2.29502 7.72512C3.09752 7.19262 4.24502 7.01262 5.27252 7.19262" stroke="#AEB3C1" stroke-width="1.5" stroke-linecap="round" stroke-linejoin="round"/>
<path d="M9 10.9725C8.955 10.965 8.9025 10.965 8.8575 10.9725C7.8225 10.935 6.9975 10.0875 6.9975 9.03754C6.9975 7.96504 7.86 7.10254 8.9325 7.10254C10.005 7.10254 10.8675 7.97254 10.8675 9.03754C10.86 10.0875 10.035 10.9425 9 10.9725Z" stroke="#AEB3C1" stroke-width="1.5" stroke-linecap="round" stroke-linejoin="round"/>
<path d="M11.1825 13.335C9.99001 12.54 8.01751 12.54 6.81751 13.335C5.76001 14.04 5.76001 15.195 6.81751 15.9C8.01751 16.7025 9.98251 16.7025 11.1825 15.9" stroke="#AEB3C1" stroke-width="1.5" stroke-linecap="round" stroke-linejoin="round"/>
</svg>
